<svg width="96" height="96" viewBox="0 0 96 96" fill="none" xmlns="http://www.w3.org/2000/svg">
<path d="M41.3876 41.3148C42.4149 40.8693 44.0513 40.1693 45.024 39.6511C45.5331 39.4239 46.5149 38.833 46.124 38.0602C43.8513 34.9966 44.1513 29.8875 46.0604 27.5875C46.624 26.9148 47.3422 26.4602 47.8513 25.7693C48.3967 25.033 48.6967 24.1148 49.1058 23.3057C53.2149 15.1784 65.4967 13.4057 72.5513 18.633C74.0786 19.7693 75.5786 21.3875 76.0786 23.242C76.3786 24.333 76.4331 25.4693 76.6786 26.5784C76.9604 27.8602 77.5513 28.6966 78.2331 29.7693C79.7422 32.1602 79.4058 36.4784 77.6149 38.642C80.5604 40.8875 83.2058 43.1602 85.7149 45.8875C88.2331 48.6148 89.9876 51.4148 90.2967 55.2329C91.8695 74.3329 67.3149 79.1057 53.7876 79.5511C45.1513 79.842 32.1695 78.933 23.9604 76.0966C16.1604 73.3966 6.94219 68.2693 5.79674 59.2966C5.32401 55.6148 6.20583 51.7875 8.2331 48.6784C10.6695 44.9511 11.0967 44.5693 10.7786 39.4511C10.6695 37.7602 9.1331 34.933 10.2967 33.3966C10.4695 33.1693 10.6786 32.9784 10.8149 32.733C11.024 32.342 10.9876 31.8784 10.9513 31.442C10.7967 29.6057 11.0967 27.7875 13.3876 28.6966C15.0513 29.3602 16.8786 30.0239 18.4058 30.9693C19.9331 31.9148 22.5604 33.3784 24.3149 34.0602C29.6876 36.1511 37.5058 33.7239 44.9058 35.8057" fill="#FFF9F2"/>
<path d="M41.7333 41.9061C42.8697 41.4152 44.006 40.9243 45.1151 40.3697C45.8242 40.0152 46.6788 39.5697 46.8606 38.7243C47.0697 37.7606 46.0788 36.8061 45.7606 35.9515C45.3424 34.8061 45.1697 33.5879 45.206 32.3788C45.2424 31.2333 45.4606 30.0424 45.9606 29.0061C46.5242 27.8606 47.5697 27.2333 48.3333 26.2515C49.0242 25.3606 49.3515 24.2606 49.8879 23.2788C50.4242 22.297 51.0515 21.4606 51.806 20.6879C54.706 17.7243 58.9515 16.3243 63.0333 16.3424C67.1151 16.3606 72.2151 18.0061 74.6424 21.7606C75.6424 23.3061 75.597 25.0243 76.006 26.7515C76.3242 28.1061 77.1151 29.1424 77.7697 30.3424C78.997 32.6243 78.7151 36.1061 77.1242 38.1515C76.8333 38.5333 76.8788 38.9333 77.2606 39.2243C80.4515 41.6697 83.5788 44.3243 86.1606 47.4243C88.4788 50.2061 89.6879 53.3606 89.6788 56.9879C89.6697 61.9424 87.5061 66.3788 83.8151 69.6424C80.1242 72.9061 75.4061 74.9061 70.7242 76.2697C66.0515 77.6333 61.206 78.397 56.3606 78.7333C50.006 79.1697 43.5697 78.8788 37.2515 78.1515C30.5788 77.3788 23.9879 75.9333 17.9788 72.8243C12.3606 69.9152 6.91515 65.2606 6.38787 58.5333C6.06969 54.4515 7.51515 51.0515 9.66971 47.7061C11.006 45.6243 11.5879 43.7333 11.5333 41.2424C11.497 39.6152 11.2242 38.2061 10.8242 36.6424C10.6515 35.9424 10.4333 35.1606 10.5788 34.4424C10.7333 33.6697 11.4424 33.2333 11.597 32.4424C11.7788 31.5243 11.0242 28.8152 12.7242 29.197C14.5788 29.6061 16.5606 30.6515 18.1788 31.6333C20.9606 33.3152 23.8606 35.0061 27.1333 35.4515C30.8697 35.9515 34.6606 35.4788 38.406 35.597C40.5424 35.6606 42.6515 35.9061 44.7242 36.4697C45.5697 36.697 45.9333 35.3879 45.0879 35.1515C40.897 34.0152 36.606 34.2152 32.3151 34.2879C30.3242 34.3243 28.297 34.3424 26.3333 33.9424C24.5424 33.5697 22.906 32.7333 21.306 31.8697C19.6242 30.9606 18.0424 29.9061 16.2879 29.1424C14.997 28.5879 13.006 27.3333 11.5515 27.9243C10.397 28.397 10.206 29.797 10.2242 30.897C10.2242 31.2606 10.3151 31.6515 10.2697 32.0152C10.197 32.5061 9.87881 32.7697 9.62421 33.1697C9.25151 33.7697 9.13331 34.4879 9.17881 35.1879C9.26971 36.7879 9.99701 38.2606 10.106 39.8606C10.206 41.3243 10.306 42.897 9.89701 44.3243C9.54241 45.5424 8.76969 46.6061 8.08787 47.6606C6.98787 49.3515 6.07878 51.097 5.55151 53.0515C3.66969 60.0788 6.76969 66.597 12.3242 70.8879C17.8788 75.1788 24.297 77.3424 30.8515 78.5788C38.2242 79.9697 45.8424 80.4697 53.3333 80.2606C58.3151 80.1243 63.306 79.5152 68.1515 78.3697C73.297 77.1606 78.497 75.3152 82.8151 72.1879C86.8697 69.2606 89.9606 65.1243 90.7788 60.1061C91.2697 57.0606 91.1333 53.8152 89.9333 50.9515C88.4424 47.397 85.5424 44.5515 82.7333 42.0152C81.197 40.6243 79.5788 39.3243 77.9333 38.0697L78.0697 39.1424C79.5333 37.2606 80.0515 34.7606 79.7606 32.4061C79.6333 31.3515 79.3333 30.3515 78.7879 29.4333C78.4242 28.8243 78.0061 28.2515 77.7061 27.6061C77.3151 26.7606 77.1879 25.8515 77.0515 24.9424C76.597 21.8879 75.1606 19.6879 72.6424 17.897C70.9061 16.6606 68.8606 15.8333 66.7697 15.397C62.5515 14.5152 57.9606 15.097 54.1788 17.197C52.3424 18.2152 50.7242 19.6152 49.4879 21.3243C48.8333 22.2333 48.3879 23.2152 47.9151 24.2243C47.2515 25.6424 45.9879 26.3788 45.1424 27.6424C43.7333 29.7515 43.5333 32.6697 44.0606 35.097C44.1879 35.6697 44.3606 36.2333 44.597 36.7788C44.7151 37.0697 44.8515 37.3515 44.997 37.6243C45.2879 38.1515 45.506 38.3879 45.0333 38.8606C44.6151 39.2879 43.706 39.5333 43.1697 39.7788C42.4515 40.1061 41.7242 40.4152 41.006 40.7333C40.206 41.0788 40.897 42.2515 41.697 41.9152L41.7333 41.9061Z" fill="black"/>
<path d="M60.0159 32.8238C60.7841 32.8238 61.4068 32.2011 61.4068 31.4329C61.4068 30.6647 60.7841 30.042 60.0159 30.042C59.2477 30.042 58.625 30.6647 58.625 31.4329C58.625 32.2011 59.2477 32.8238 60.0159 32.8238Z" fill="black"/>
<path d="M60.7343 31.4323C60.7343 31.4323 60.7343 31.5141 60.7343 31.5505C60.7343 31.6596 60.7343 31.4959 60.7434 31.4868C60.7162 31.5414 60.7162 31.6141 60.698 31.6687C60.6889 31.705 60.6707 31.7414 60.6616 31.7777C60.6616 31.7687 60.7343 31.6232 60.6889 31.7141C60.6525 31.7777 60.6162 31.8414 60.5798 31.905C60.5071 32.0141 60.6707 31.8141 60.6071 31.8687C60.5889 31.8868 60.5707 31.9141 60.5434 31.9323C60.5252 31.9505 60.5071 31.9687 60.4889 31.9868C60.4434 32.0323 60.3616 32.0596 60.5162 31.9687C60.4616 31.9959 60.4162 32.0414 60.3616 32.0687C60.3434 32.0777 60.3162 32.0868 60.298 32.105C60.1889 32.1687 60.4616 32.0596 60.3071 32.105C60.2434 32.1232 60.1889 32.1414 60.1252 32.1596C60.0525 32.1777 60.0252 32.1414 60.1798 32.1596C60.1525 32.1596 60.1162 32.1596 60.0798 32.1596C60.0162 32.1596 59.9525 32.1596 59.8889 32.1596C59.798 32.1596 60.0707 32.1959 59.9343 32.1596C59.898 32.1596 59.8616 32.1414 59.8252 32.1323C59.7889 32.1232 59.7525 32.105 59.7162 32.0959C59.6525 32.0777 59.6798 32.0505 59.7798 32.1232C59.7343 32.0868 59.6707 32.0687 59.6162 32.0323C59.5889 32.0141 59.5707 31.9959 59.5434 31.9777C59.4707 31.9323 59.6707 32.0959 59.5798 32.005C59.5343 31.9596 59.4798 31.8868 59.4252 31.8505C59.5162 31.9232 59.498 31.9596 59.4616 31.905C59.4434 31.8777 59.4252 31.8414 59.398 31.8141C59.3889 31.7959 59.3707 31.7687 59.3616 31.7505C59.3252 31.6868 59.3343 31.6141 59.3616 31.7777C59.3525 31.7141 59.3162 31.6596 59.3071 31.605C59.3071 31.5777 59.298 31.5596 59.2889 31.5323C59.2616 31.405 59.3071 31.7141 59.2889 31.5414C59.2889 31.4868 59.2889 31.4232 59.2889 31.3687C59.2889 31.305 59.3343 31.2141 59.2889 31.3959C59.2889 31.3687 59.2889 31.3505 59.3071 31.3232C59.3162 31.2596 59.3434 31.205 59.3616 31.1414C59.4071 31.0141 59.2798 31.2868 59.3525 31.1687C59.3707 31.1414 59.3889 31.105 59.4071 31.0687C59.4252 31.0414 59.4434 31.0141 59.4525 30.9959C59.498 30.9323 59.5252 30.9505 59.4252 31.0323C59.4707 30.9959 59.5071 30.9414 59.5525 30.905C59.5707 30.8868 59.6616 30.8232 59.5707 30.8868C59.4798 30.9505 59.5707 30.8868 59.5889 30.8777C59.6434 30.8414 59.7343 30.8141 59.7798 30.7687C59.7798 30.7687 59.6162 30.8323 59.7162 30.7959C59.7525 30.7868 59.7889 30.7687 59.8252 30.7596C59.8616 30.7505 60.0434 30.7232 59.9162 30.7323C59.7889 30.7414 59.998 30.7323 60.0343 30.7323C60.0707 30.7323 60.098 30.7323 60.1343 30.7323C60.2707 30.7323 59.9798 30.6959 60.1071 30.7323C60.1798 30.7505 60.2525 30.7687 60.3252 30.7959C60.4525 30.8323 60.2071 30.7323 60.2798 30.7777C60.3162 30.805 60.3525 30.8141 60.3889 30.8414C60.4071 30.8505 60.4343 30.8687 60.4525 30.8777C60.598 30.9777 60.3798 30.805 60.4525 30.8777C60.498 30.9232 60.5343 30.9596 60.5798 31.005C60.6707 31.105 60.4889 30.8687 60.5616 30.9777C60.5798 31.005 60.598 31.0414 60.6252 31.0687C60.6525 31.0959 60.6616 31.1323 60.6798 31.1687C60.7434 31.2777 60.6252 31.0141 60.6707 31.1414C60.698 31.2141 60.7162 31.2868 60.7343 31.3596C60.7525 31.4232 60.7162 31.4323 60.7343 31.2868C60.7343 31.3323 60.7343 31.3868 60.7343 31.4414C60.7343 31.7959 61.0434 32.1414 61.4162 32.1232C61.7889 32.105 62.1071 31.8232 62.098 31.4414C62.0889 30.5505 61.5343 29.7959 60.7071 29.4868C59.9434 29.1959 58.9798 29.4505 58.4616 30.0868C57.898 30.7687 57.7798 31.7323 58.2434 32.505C58.7071 33.2777 59.5889 33.6323 60.4616 33.4777C61.4162 33.305 62.098 32.3959 62.1071 31.4505C62.1071 31.0959 61.7889 30.7505 61.4252 30.7687C61.0616 30.7868 60.7525 31.0687 60.7434 31.4505L60.7343 31.4323Z" fill="black"/>
<path d="M78.0507 34.2694C78.778 35.4058 79.6872 36.3876 80.5781 37.3876C81.0599 37.924 81.4144 38.5967 81.4962 39.3149C81.578 40.0331 81.3598 40.8058 80.8326 41.2876C79.3235 42.6876 76.9235 41.6058 75.1871 41.3603C73.9689 41.1876 72.7507 41.0149 71.5235 40.8785C70.4235 40.7603 69.2962 40.6603 68.2962 40.1785C66.3144 39.2331 66.0598 36.8967 67.3689 35.2876C67.8326 34.7149 68.4053 34.2422 68.978 33.7785C69.6235 33.2512 69.9872 32.724 70.469 32.0422C70.8236 31.5512 71.178 31.0512 71.6598 30.6694C72.7053 29.8422 74.1962 29.4422 75.3326 30.2967C76.2417 30.9785 76.778 32.1331 77.3326 33.0694C77.5689 33.4694 77.8053 33.8785 78.0598 34.2694H78.0507Z" fill="#F2895F"/>
<path d="M77.4682 34.6149C78.2409 35.7876 79.2046 36.7875 80.0955 37.8694C80.8773 38.8057 81.2865 40.4422 79.9228 41.0967C78.9319 41.5786 77.6864 41.2058 76.6773 40.9695C75.4136 40.6786 74.1227 40.5148 72.8409 40.3512C70.9409 40.1057 67.15 40.1786 67.2409 37.3967C67.2773 36.2058 68.1318 35.3786 68.9864 34.6513C69.4682 34.2422 69.9409 33.8604 70.3318 33.3604C70.7227 32.8604 71.0774 32.2967 71.4956 31.7967C72.3865 30.724 73.9864 29.9604 75.1682 31.0604C76.1773 31.9967 76.7318 33.4695 77.4682 34.624C77.9409 35.3604 79.1227 34.6786 78.65 33.9331C77.8137 32.6149 77.1773 30.9967 75.9773 29.9513C74.7773 28.9058 73.3318 28.9604 72.0227 29.624C70.5591 30.3695 69.9773 31.8786 68.85 32.9786C67.7227 34.0786 66.4318 34.8695 66.0136 36.4604C65.6955 37.6604 65.9591 38.9604 66.7864 39.8876C67.7955 41.024 69.3864 41.3057 70.8227 41.4785C72.5591 41.6875 74.3227 41.8331 76.0227 42.2149C77.3591 42.524 78.85 42.9422 80.1955 42.4513C81.8227 41.8604 82.55 40.1058 82.0136 38.4967C81.7409 37.6786 81.2046 37.0604 80.65 36.4331C79.9409 35.6331 79.2409 34.824 78.65 33.924C78.1682 33.1967 76.9864 33.8786 77.4682 34.6149Z" fill="black"/>
</svg>
