<svg width="51" height="51" viewBox="0 0 51 51" fill="none" xmlns="http://www.w3.org/2000/svg">
<rect width="51" height="51" rx="12" fill="white"/>
<mask id="path-2-outside-1_729_119" maskUnits="userSpaceOnUse" x="4.5" y="11.5" width="42" height="28" fill="black">
<rect fill="white" x="4.5" y="11.5" width="42" height="28"/>
<path d="M27.4934 12.5H31.3393C31.5103 12.5 31.6515 12.5572 31.7629 12.6715C31.8744 12.7859 31.9302 12.9307 31.9302 13.1061C31.9302 13.2814 31.8744 13.4263 31.7629 13.5406C31.6515 13.6626 31.5103 13.7236 31.3393 13.7236H27.4934C27.3225 13.7236 27.1776 13.6626 27.0587 13.5406C26.9472 13.4263 26.8915 13.2814 26.8915 13.1061C26.8915 12.9307 26.9472 12.7859 27.0587 12.6715C27.1776 12.5572 27.3225 12.5 27.4934 12.5Z"/>
<path d="M6.10197 24.8882H9.94786C10.1188 24.8882 10.26 24.9454 10.3715 25.0597C10.4829 25.1741 10.5387 25.3189 10.5387 25.4943C10.5387 25.6696 10.4829 25.8145 10.3715 25.9288C10.26 26.0508 10.1188 26.1118 9.94786 26.1118H6.10197C5.93104 26.1118 5.78612 26.0508 5.66721 25.9288C5.55574 25.8145 5.5 25.6696 5.5 25.4943C5.5 25.3189 5.55574 25.1741 5.66721 25.0597C5.78612 24.9454 5.93104 24.8882 6.10197 24.8882Z"/>
<path d="M13.2325 24.8882H17.0784C17.2493 24.8882 17.3905 24.9454 17.502 25.0597C17.6134 25.1741 17.6692 25.3189 17.6692 25.4943C17.6692 25.6696 17.6134 25.8145 17.502 25.9288C17.3905 26.0508 17.2493 26.1118 17.0784 26.1118H13.2325C13.0615 26.1118 12.9166 26.0508 12.7977 25.9288C12.6862 25.8145 12.6305 25.6696 12.6305 25.4943C12.6305 25.3189 12.6862 25.1741 12.7977 25.0597C12.9166 24.9454 13.0615 24.8882 13.2325 24.8882Z"/>
<path d="M22.7485 24.8882H23.0941C23.265 24.8882 23.4062 24.9454 23.5177 25.0597C23.6292 25.1741 23.6849 25.3189 23.6849 25.4943C23.6849 25.6696 23.6292 25.8145 23.5177 25.9288C23.4062 26.0508 23.265 26.1118 23.0941 26.1118H22.3807C22.1949 26.1118 22.0537 26.0508 21.957 25.9288L21.043 25.0026C20.9315 24.8882 20.8757 24.7434 20.8757 24.568V18.656C20.8757 18.4806 20.9315 18.3358 21.043 18.2214L21.957 17.2952C22.0537 17.1732 22.1949 17.1122 22.3807 17.1122H23.0941C23.265 17.1122 23.4062 17.1694 23.5177 17.2838C23.6292 17.3981 23.6849 17.543 23.6849 17.7183C23.6849 17.8936 23.6292 18.0423 23.5177 18.1643C23.4062 18.2786 23.265 18.3358 23.0941 18.3358H22.7485C22.6668 18.3358 22.5999 18.3625 22.5479 18.4158L22.1466 18.8275C22.0945 18.8809 22.0685 18.9495 22.0685 19.0334V24.1907C22.0685 24.2745 22.0945 24.3431 22.1466 24.3965L22.5479 24.8082C22.5999 24.8615 22.6668 24.8882 22.7485 24.8882Z"/>
<path d="M28.1066 21.9493V21.2747C28.1066 21.1603 28.1474 21.0612 28.2292 20.9773L28.7977 20.3713C28.8795 20.295 28.9798 20.2569 29.0987 20.2569H29.7452C29.8642 20.2569 29.9645 20.2989 30.0462 20.3827L30.6148 20.9773C30.6891 21.0536 30.7262 21.1527 30.7262 21.2747V21.9493C30.7262 22.0789 30.6891 22.1781 30.6148 22.2467L30.0462 22.8299C29.9645 22.9137 29.8642 22.9557 29.7452 22.9557H29.0987C28.9798 22.9557 28.8795 22.9175 28.7977 22.8413L28.218 22.2467C28.1437 22.1628 28.1066 22.0637 28.1066 21.9493Z"/>
<path d="M35.7164 24.8882H36.062C36.1437 24.8882 36.2106 24.8615 36.2626 24.8082L36.6639 24.3965C36.7085 24.3355 36.7308 24.2669 36.7308 24.1907V19.0334C36.7308 18.9495 36.7085 18.8809 36.6639 18.8275L36.2626 18.4158C36.2106 18.3625 36.1437 18.3358 36.062 18.3358H35.7164C35.5455 18.3358 35.4043 18.2786 35.2928 18.1643C35.1813 18.0423 35.1256 17.8936 35.1256 17.7183C35.1256 17.543 35.1813 17.3981 35.2928 17.2838C35.4043 17.1694 35.5455 17.1122 35.7164 17.1122H36.4298C36.6008 17.1122 36.742 17.1732 36.8534 17.2952L37.7898 18.2214C37.9013 18.3358 37.957 18.4806 37.957 18.656V24.568C37.957 24.7434 37.9013 24.8882 37.7898 25.0026L36.8534 25.9288C36.742 26.0508 36.6008 26.1118 36.4298 26.1118H35.7164C35.5455 26.1118 35.4043 26.0508 35.2928 25.9288C35.1813 25.8145 35.1256 25.6696 35.1256 25.4943C35.1256 25.3189 35.1813 25.1741 35.2928 25.0597C35.4043 24.9454 35.5455 24.8882 35.7164 24.8882Z"/>
<path d="M42.8915 18.6789L45.3216 21.1717C45.4405 21.2937 45.5 21.4424 45.5 21.6177C45.5 21.7931 45.4405 21.9417 45.3216 22.0637L42.9026 24.5452C42.7837 24.6671 42.6388 24.7281 42.4679 24.7281C42.2969 24.7281 42.1557 24.6709 42.0443 24.5566C41.9328 24.4346 41.8771 24.286 41.8771 24.1106C41.8771 23.92 41.9328 23.7752 42.0443 23.6761L43.7721 21.9036C43.8613 21.7969 43.9059 21.7016 43.9059 21.6177C43.9059 21.5186 43.865 21.4271 43.7833 21.3433L42.022 19.5365C41.9105 19.4222 41.8548 19.2811 41.8548 19.1134C41.8548 18.9381 41.9179 18.7932 42.0443 18.6789C42.1706 18.5569 42.3155 18.4959 42.479 18.4959C42.6351 18.4959 42.7726 18.5569 42.8915 18.6789Z"/>
<path d="M6.72623 30.6097V31.6503C6.72623 31.7341 6.75224 31.8027 6.80426 31.8561L10.3603 35.5268C10.4792 35.6488 10.5387 35.7937 10.5387 35.9614V37.3793C10.5387 37.5547 10.4792 37.7033 10.3603 37.8253C10.2488 37.9397 10.1076 37.9968 9.93671 37.9968C9.76578 37.9968 9.61715 37.9397 9.49081 37.8253C9.37191 37.7033 9.31245 37.5547 9.31245 37.3793V36.3387C9.31245 36.2473 9.29016 36.1786 9.24557 36.1329L5.68951 32.4622C5.56317 32.3326 5.5 32.1877 5.5 32.0276V30.6097C5.5 30.4343 5.55945 30.2895 5.67836 30.1751C5.79727 30.0531 5.94218 29.9922 6.11311 29.9922C6.28404 29.9922 6.42896 30.0531 6.54787 30.1751C6.66677 30.2895 6.72623 30.4343 6.72623 30.6097Z"/>
<path d="M13.5 33.56L15.9413 31.0671C16.0528 30.9451 16.1903 30.8841 16.3538 30.8841C16.5173 30.8841 16.6622 30.9451 16.7885 31.0671C16.9149 31.1814 16.978 31.3263 16.978 31.5016C16.978 31.6693 16.9186 31.8104 16.7997 31.9247L15.0495 33.7315C14.9603 33.8154 14.9157 33.9068 14.9157 34.0059C14.9157 34.0974 14.964 34.1927 15.0607 34.2918L16.7885 36.0643C16.9 36.1786 16.9557 36.3235 16.9557 36.4988C16.9557 36.6742 16.9 36.8228 16.7885 36.9448C16.677 37.0592 16.5358 37.1163 16.3649 37.1163C16.1866 37.1163 16.0416 37.0553 15.9302 36.9334L13.5 34.4519C13.3885 34.3299 13.3328 34.1813 13.3328 34.0059C13.3328 33.823 13.3885 33.6743 13.5 33.56Z"/>
<path d="M20.363 37.2764H24.2088C24.3798 37.2764 24.521 37.3336 24.6325 37.448C24.7439 37.5623 24.7997 37.7072 24.7997 37.8825C24.7997 38.0578 24.7439 38.2027 24.6325 38.317C24.521 38.439 24.3798 38.5 24.2088 38.5H20.363C20.192 38.5 20.0471 38.439 19.9282 38.317C19.8167 38.2027 19.761 38.0578 19.761 37.8825C19.761 37.7072 19.8167 37.5623 19.9282 37.448C20.0471 37.3336 20.192 37.2764 20.363 37.2764Z"/>
<path d="M27.4934 37.2764H31.3393C31.5103 37.2764 31.6515 37.3336 31.7629 37.448C31.8744 37.5623 31.9302 37.7072 31.9302 37.8825C31.9302 38.0578 31.8744 38.2027 31.7629 38.317C31.6515 38.439 31.5103 38.5 31.3393 38.5H27.4934C27.3225 38.5 27.1776 38.439 27.0587 38.317C26.9472 38.2027 26.8915 38.0578 26.8915 37.8825C26.8915 37.7072 26.9472 37.5623 27.0587 37.448C27.1776 37.3336 27.3225 37.2764 27.4934 37.2764Z"/>
<path d="M35.7164 37.2764H36.062C36.1437 37.2764 36.2106 37.2497 36.2626 37.1964L36.6639 36.7847C36.7085 36.7237 36.7308 36.6551 36.7308 36.5789V31.4216C36.7308 31.3377 36.7085 31.2691 36.6639 31.2157L36.2626 30.8041C36.2106 30.7507 36.1437 30.724 36.062 30.724H35.7164C35.5455 30.724 35.4043 30.6668 35.2928 30.5525C35.1813 30.4305 35.1256 30.2819 35.1256 30.1065C35.1256 29.9312 35.1813 29.7863 35.2928 29.672C35.4043 29.5576 35.5455 29.5004 35.7164 29.5004H36.4298C36.6008 29.5004 36.742 29.5614 36.8534 29.6834L37.7898 30.6097C37.9013 30.724 37.957 30.8689 37.957 31.0442V36.9562C37.957 37.1316 37.9013 37.2764 37.7898 37.3908L36.8534 38.317C36.742 38.439 36.6008 38.5 36.4298 38.5H35.7164C35.5455 38.5 35.4043 38.439 35.2928 38.317C35.1813 38.2027 35.1256 38.0578 35.1256 37.8825C35.1256 37.7072 35.1813 37.5623 35.2928 37.448C35.4043 37.3336 35.5455 37.2764 35.7164 37.2764Z"/>
</mask>
<path d="M27.4934 12.5H31.3393C31.5103 12.5 31.6515 12.5572 31.7629 12.6715C31.8744 12.7859 31.9302 12.9307 31.9302 13.1061C31.9302 13.2814 31.8744 13.4263 31.7629 13.5406C31.6515 13.6626 31.5103 13.7236 31.3393 13.7236H27.4934C27.3225 13.7236 27.1776 13.6626 27.0587 13.5406C26.9472 13.4263 26.8915 13.2814 26.8915 13.1061C26.8915 12.9307 26.9472 12.7859 27.0587 12.6715C27.1776 12.5572 27.3225 12.5 27.4934 12.5Z" fill="black"/>
<path d="M6.10197 24.8882H9.94786C10.1188 24.8882 10.26 24.9454 10.3715 25.0597C10.4829 25.1741 10.5387 25.3189 10.5387 25.4943C10.5387 25.6696 10.4829 25.8145 10.3715 25.9288C10.26 26.0508 10.1188 26.1118 9.94786 26.1118H6.10197C5.93104 26.1118 5.78612 26.0508 5.66721 25.9288C5.55574 25.8145 5.5 25.6696 5.5 25.4943C5.5 25.3189 5.55574 25.1741 5.66721 25.0597C5.78612 24.9454 5.93104 24.8882 6.10197 24.8882Z" fill="black"/>
<path d="M13.2325 24.8882H17.0784C17.2493 24.8882 17.3905 24.9454 17.502 25.0597C17.6134 25.1741 17.6692 25.3189 17.6692 25.4943C17.6692 25.6696 17.6134 25.8145 17.502 25.9288C17.3905 26.0508 17.2493 26.1118 17.0784 26.1118H13.2325C13.0615 26.1118 12.9166 26.0508 12.7977 25.9288C12.6862 25.8145 12.6305 25.6696 12.6305 25.4943C12.6305 25.3189 12.6862 25.1741 12.7977 25.0597C12.9166 24.9454 13.0615 24.8882 13.2325 24.8882Z" fill="black"/>
<path d="M22.7485 24.8882H23.0941C23.265 24.8882 23.4062 24.9454 23.5177 25.0597C23.6292 25.1741 23.6849 25.3189 23.6849 25.4943C23.6849 25.6696 23.6292 25.8145 23.5177 25.9288C23.4062 26.0508 23.265 26.1118 23.0941 26.1118H22.3807C22.1949 26.1118 22.0537 26.0508 21.957 25.9288L21.043 25.0026C20.9315 24.8882 20.8757 24.7434 20.8757 24.568V18.656C20.8757 18.4806 20.9315 18.3358 21.043 18.2214L21.957 17.2952C22.0537 17.1732 22.1949 17.1122 22.3807 17.1122H23.0941C23.265 17.1122 23.4062 17.1694 23.5177 17.2838C23.6292 17.3981 23.6849 17.543 23.6849 17.7183C23.6849 17.8936 23.6292 18.0423 23.5177 18.1643C23.4062 18.2786 23.265 18.3358 23.0941 18.3358H22.7485C22.6668 18.3358 22.5999 18.3625 22.5479 18.4158L22.1466 18.8275C22.0945 18.8809 22.0685 18.9495 22.0685 19.0334V24.1907C22.0685 24.2745 22.0945 24.3431 22.1466 24.3965L22.5479 24.8082C22.5999 24.8615 22.6668 24.8882 22.7485 24.8882Z" fill="black"/>
<path d="M28.1066 21.9493V21.2747C28.1066 21.1603 28.1474 21.0612 28.2292 20.9773L28.7977 20.3713C28.8795 20.295 28.9798 20.2569 29.0987 20.2569H29.7452C29.8642 20.2569 29.9645 20.2989 30.0462 20.3827L30.6148 20.9773C30.6891 21.0536 30.7262 21.1527 30.7262 21.2747V21.9493C30.7262 22.0789 30.6891 22.1781 30.6148 22.2467L30.0462 22.8299C29.9645 22.9137 29.8642 22.9557 29.7452 22.9557H29.0987C28.9798 22.9557 28.8795 22.9175 28.7977 22.8413L28.218 22.2467C28.1437 22.1628 28.1066 22.0637 28.1066 21.9493Z" fill="black"/>
<path d="M35.7164 24.8882H36.062C36.1437 24.8882 36.2106 24.8615 36.2626 24.8082L36.6639 24.3965C36.7085 24.3355 36.7308 24.2669 36.7308 24.1907V19.0334C36.7308 18.9495 36.7085 18.8809 36.6639 18.8275L36.2626 18.4158C36.2106 18.3625 36.1437 18.3358 36.062 18.3358H35.7164C35.5455 18.3358 35.4043 18.2786 35.2928 18.1643C35.1813 18.0423 35.1256 17.8936 35.1256 17.7183C35.1256 17.543 35.1813 17.3981 35.2928 17.2838C35.4043 17.1694 35.5455 17.1122 35.7164 17.1122H36.4298C36.6008 17.1122 36.742 17.1732 36.8534 17.2952L37.7898 18.2214C37.9013 18.3358 37.957 18.4806 37.957 18.656V24.568C37.957 24.7434 37.9013 24.8882 37.7898 25.0026L36.8534 25.9288C36.742 26.0508 36.6008 26.1118 36.4298 26.1118H35.7164C35.5455 26.1118 35.4043 26.0508 35.2928 25.9288C35.1813 25.8145 35.1256 25.6696 35.1256 25.4943C35.1256 25.3189 35.1813 25.1741 35.2928 25.0597C35.4043 24.9454 35.5455 24.8882 35.7164 24.8882Z" fill="black"/>
<path d="M42.8915 18.6789L45.3216 21.1717C45.4405 21.2937 45.5 21.4424 45.5 21.6177C45.5 21.7931 45.4405 21.9417 45.3216 22.0637L42.9026 24.5452C42.7837 24.6671 42.6388 24.7281 42.4679 24.7281C42.2969 24.7281 42.1557 24.6709 42.0443 24.5566C41.9328 24.4346 41.8771 24.286 41.8771 24.1106C41.8771 23.92 41.9328 23.7752 42.0443 23.6761L43.7721 21.9036C43.8613 21.7969 43.9059 21.7016 43.9059 21.6177C43.9059 21.5186 43.865 21.4271 43.7833 21.3433L42.022 19.5365C41.9105 19.4222 41.8548 19.2811 41.8548 19.1134C41.8548 18.9381 41.9179 18.7932 42.0443 18.6789C42.1706 18.5569 42.3155 18.4959 42.479 18.4959C42.6351 18.4959 42.7726 18.5569 42.8915 18.6789Z" fill="black"/>
<path d="M6.72623 30.6097V31.6503C6.72623 31.7341 6.75224 31.8027 6.80426 31.8561L10.3603 35.5268C10.4792 35.6488 10.5387 35.7937 10.5387 35.9614V37.3793C10.5387 37.5547 10.4792 37.7033 10.3603 37.8253C10.2488 37.9397 10.1076 37.9968 9.93671 37.9968C9.76578 37.9968 9.61715 37.9397 9.49081 37.8253C9.37191 37.7033 9.31245 37.5547 9.31245 37.3793V36.3387C9.31245 36.2473 9.29016 36.1786 9.24557 36.1329L5.68951 32.4622C5.56317 32.3326 5.5 32.1877 5.5 32.0276V30.6097C5.5 30.4343 5.55945 30.2895 5.67836 30.1751C5.79727 30.0531 5.94218 29.9922 6.11311 29.9922C6.28404 29.9922 6.42896 30.0531 6.54787 30.1751C6.66677 30.2895 6.72623 30.4343 6.72623 30.6097Z" fill="black"/>
<path d="M13.5 33.56L15.9413 31.0671C16.0528 30.9451 16.1903 30.8841 16.3538 30.8841C16.5173 30.8841 16.6622 30.9451 16.7885 31.0671C16.9149 31.1814 16.978 31.3263 16.978 31.5016C16.978 31.6693 16.9186 31.8104 16.7997 31.9247L15.0495 33.7315C14.9603 33.8154 14.9157 33.9068 14.9157 34.0059C14.9157 34.0974 14.964 34.1927 15.0607 34.2918L16.7885 36.0643C16.9 36.1786 16.9557 36.3235 16.9557 36.4988C16.9557 36.6742 16.9 36.8228 16.7885 36.9448C16.677 37.0592 16.5358 37.1163 16.3649 37.1163C16.1866 37.1163 16.0416 37.0553 15.9302 36.9334L13.5 34.4519C13.3885 34.3299 13.3328 34.1813 13.3328 34.0059C13.3328 33.823 13.3885 33.6743 13.5 33.56Z" fill="black"/>
<path d="M20.363 37.2764H24.2088C24.3798 37.2764 24.521 37.3336 24.6325 37.448C24.7439 37.5623 24.7997 37.7072 24.7997 37.8825C24.7997 38.0578 24.7439 38.2027 24.6325 38.317C24.521 38.439 24.3798 38.5 24.2088 38.5H20.363C20.192 38.5 20.0471 38.439 19.9282 38.317C19.8167 38.2027 19.761 38.0578 19.761 37.8825C19.761 37.7072 19.8167 37.5623 19.9282 37.448C20.0471 37.3336 20.192 37.2764 20.363 37.2764Z" fill="black"/>
<path d="M27.4934 37.2764H31.3393C31.5103 37.2764 31.6515 37.3336 31.7629 37.448C31.8744 37.5623 31.9302 37.7072 31.9302 37.8825C31.9302 38.0578 31.8744 38.2027 31.7629 38.317C31.6515 38.439 31.5103 38.5 31.3393 38.5H27.4934C27.3225 38.5 27.1776 38.439 27.0587 38.317C26.9472 38.2027 26.8915 38.0578 26.8915 37.8825C26.8915 37.7072 26.9472 37.5623 27.0587 37.448C27.1776 37.3336 27.3225 37.2764 27.4934 37.2764Z" fill="black"/>
<path d="M35.7164 37.2764H36.062C36.1437 37.2764 36.2106 37.2497 36.2626 37.1964L36.6639 36.7847C36.7085 36.7237 36.7308 36.6551 36.7308 36.5789V31.4216C36.7308 31.3377 36.7085 31.2691 36.6639 31.2157L36.2626 30.8041C36.2106 30.7507 36.1437 30.724 36.062 30.724H35.7164C35.5455 30.724 35.4043 30.6668 35.2928 30.5525C35.1813 30.4305 35.1256 30.2819 35.1256 30.1065C35.1256 29.9312 35.1813 29.7863 35.2928 29.672C35.4043 29.5576 35.5455 29.5004 35.7164 29.5004H36.4298C36.6008 29.5004 36.742 29.5614 36.8534 29.6834L37.7898 30.6097C37.9013 30.724 37.957 30.8689 37.957 31.0442V36.9562C37.957 37.1316 37.9013 37.2764 37.7898 37.3908L36.8534 38.317C36.742 38.439 36.6008 38.5 36.4298 38.5H35.7164C35.5455 38.5 35.4043 38.439 35.2928 38.317C35.1813 38.2027 35.1256 38.0578 35.1256 37.8825C35.1256 37.7072 35.1813 37.5623 35.2928 37.448C35.4043 37.3336 35.5455 37.2764 35.7164 37.2764Z" fill="black"/>
<path d="M27.4934 12.5H31.3393C31.5103 12.5 31.6515 12.5572 31.7629 12.6715C31.8744 12.7859 31.9302 12.9307 31.9302 13.1061C31.9302 13.2814 31.8744 13.4263 31.7629 13.5406C31.6515 13.6626 31.5103 13.7236 31.3393 13.7236H27.4934C27.3225 13.7236 27.1776 13.6626 27.0587 13.5406C26.9472 13.4263 26.8915 13.2814 26.8915 13.1061C26.8915 12.9307 26.9472 12.7859 27.0587 12.6715C27.1776 12.5572 27.3225 12.5 27.4934 12.5Z" stroke="black" mask="url(#path-2-outside-1_729_119)"/>
<path d="M6.10197 24.8882H9.94786C10.1188 24.8882 10.26 24.9454 10.3715 25.0597C10.4829 25.1741 10.5387 25.3189 10.5387 25.4943C10.5387 25.6696 10.4829 25.8145 10.3715 25.9288C10.26 26.0508 10.1188 26.1118 9.94786 26.1118H6.10197C5.93104 26.1118 5.78612 26.0508 5.66721 25.9288C5.55574 25.8145 5.5 25.6696 5.5 25.4943C5.5 25.3189 5.55574 25.1741 5.66721 25.0597C5.78612 24.9454 5.93104 24.8882 6.10197 24.8882Z" stroke="black" mask="url(#path-2-outside-1_729_119)"/>
<path d="M13.2325 24.8882H17.0784C17.2493 24.8882 17.3905 24.9454 17.502 25.0597C17.6134 25.1741 17.6692 25.3189 17.6692 25.4943C17.6692 25.6696 17.6134 25.8145 17.502 25.9288C17.3905 26.0508 17.2493 26.1118 17.0784 26.1118H13.2325C13.0615 26.1118 12.9166 26.0508 12.7977 25.9288C12.6862 25.8145 12.6305 25.6696 12.6305 25.4943C12.6305 25.3189 12.6862 25.1741 12.7977 25.0597C12.9166 24.9454 13.0615 24.8882 13.2325 24.8882Z" stroke="black" mask="url(#path-2-outside-1_729_119)"/>
<path d="M22.7485 24.8882H23.0941C23.265 24.8882 23.4062 24.9454 23.5177 25.0597C23.6292 25.1741 23.6849 25.3189 23.6849 25.4943C23.6849 25.6696 23.6292 25.8145 23.5177 25.9288C23.4062 26.0508 23.265 26.1118 23.0941 26.1118H22.3807C22.1949 26.1118 22.0537 26.0508 21.957 25.9288L21.043 25.0026C20.9315 24.8882 20.8757 24.7434 20.8757 24.568V18.656C20.8757 18.4806 20.9315 18.3358 21.043 18.2214L21.957 17.2952C22.0537 17.1732 22.1949 17.1122 22.3807 17.1122H23.0941C23.265 17.1122 23.4062 17.1694 23.5177 17.2838C23.6292 17.3981 23.6849 17.543 23.6849 17.7183C23.6849 17.8936 23.6292 18.0423 23.5177 18.1643C23.4062 18.2786 23.265 18.3358 23.0941 18.3358H22.7485C22.6668 18.3358 22.5999 18.3625 22.5479 18.4158L22.1466 18.8275C22.0945 18.8809 22.0685 18.9495 22.0685 19.0334V24.1907C22.0685 24.2745 22.0945 24.3431 22.1466 24.3965L22.5479 24.8082C22.5999 24.8615 22.6668 24.8882 22.7485 24.8882Z" stroke="black" mask="url(#path-2-outside-1_729_119)"/>
<path d="M28.1066 21.9493V21.2747C28.1066 21.1603 28.1474 21.0612 28.2292 20.9773L28.7977 20.3713C28.8795 20.295 28.9798 20.2569 29.0987 20.2569H29.7452C29.8642 20.2569 29.9645 20.2989 30.0462 20.3827L30.6148 20.9773C30.6891 21.0536 30.7262 21.1527 30.7262 21.2747V21.9493C30.7262 22.0789 30.6891 22.1781 30.6148 22.2467L30.0462 22.8299C29.9645 22.9137 29.8642 22.9557 29.7452 22.9557H29.0987C28.9798 22.9557 28.8795 22.9175 28.7977 22.8413L28.218 22.2467C28.1437 22.1628 28.1066 22.0637 28.1066 21.9493Z" stroke="black" mask="url(#path-2-outside-1_729_119)"/>
<path d="M35.7164 24.8882H36.062C36.1437 24.8882 36.2106 24.8615 36.2626 24.8082L36.6639 24.3965C36.7085 24.3355 36.7308 24.2669 36.7308 24.1907V19.0334C36.7308 18.9495 36.7085 18.8809 36.6639 18.8275L36.2626 18.4158C36.2106 18.3625 36.1437 18.3358 36.062 18.3358H35.7164C35.5455 18.3358 35.4043 18.2786 35.2928 18.1643C35.1813 18.0423 35.1256 17.8936 35.1256 17.7183C35.1256 17.543 35.1813 17.3981 35.2928 17.2838C35.4043 17.1694 35.5455 17.1122 35.7164 17.1122H36.4298C36.6008 17.1122 36.742 17.1732 36.8534 17.2952L37.7898 18.2214C37.9013 18.3358 37.957 18.4806 37.957 18.656V24.568C37.957 24.7434 37.9013 24.8882 37.7898 25.0026L36.8534 25.9288C36.742 26.0508 36.6008 26.1118 36.4298 26.1118H35.7164C35.5455 26.1118 35.4043 26.0508 35.2928 25.9288C35.1813 25.8145 35.1256 25.6696 35.1256 25.4943C35.1256 25.3189 35.1813 25.1741 35.2928 25.0597C35.4043 24.9454 35.5455 24.8882 35.7164 24.8882Z" stroke="black" mask="url(#path-2-outside-1_729_119)"/>
<path d="M42.8915 18.6789L45.3216 21.1717C45.4405 21.2937 45.5 21.4424 45.5 21.6177C45.5 21.7931 45.4405 21.9417 45.3216 22.0637L42.9026 24.5452C42.7837 24.6671 42.6388 24.7281 42.4679 24.7281C42.2969 24.7281 42.1557 24.6709 42.0443 24.5566C41.9328 24.4346 41.8771 24.286 41.8771 24.1106C41.8771 23.92 41.9328 23.7752 42.0443 23.6761L43.7721 21.9036C43.8613 21.7969 43.9059 21.7016 43.9059 21.6177C43.9059 21.5186 43.865 21.4271 43.7833 21.3433L42.022 19.5365C41.9105 19.4222 41.8548 19.2811 41.8548 19.1134C41.8548 18.9381 41.9179 18.7932 42.0443 18.6789C42.1706 18.5569 42.3155 18.4959 42.479 18.4959C42.6351 18.4959 42.7726 18.5569 42.8915 18.6789Z" stroke="black" mask="url(#path-2-outside-1_729_119)"/>
<path d="M6.72623 30.6097V31.6503C6.72623 31.7341 6.75224 31.8027 6.80426 31.8561L10.3603 35.5268C10.4792 35.6488 10.5387 35.7937 10.5387 35.9614V37.3793C10.5387 37.5547 10.4792 37.7033 10.3603 37.8253C10.2488 37.9397 10.1076 37.9968 9.93671 37.9968C9.76578 37.9968 9.61715 37.9397 9.49081 37.8253C9.37191 37.7033 9.31245 37.5547 9.31245 37.3793V36.3387C9.31245 36.2473 9.29016 36.1786 9.24557 36.1329L5.68951 32.4622C5.56317 32.3326 5.5 32.1877 5.5 32.0276V30.6097C5.5 30.4343 5.55945 30.2895 5.67836 30.1751C5.79727 30.0531 5.94218 29.9922 6.11311 29.9922C6.28404 29.9922 6.42896 30.0531 6.54787 30.1751C6.66677 30.2895 6.72623 30.4343 6.72623 30.6097Z" stroke="black" mask="url(#path-2-outside-1_729_119)"/>
<path d="M13.5 33.56L15.9413 31.0671C16.0528 30.9451 16.1903 30.8841 16.3538 30.8841C16.5173 30.8841 16.6622 30.9451 16.7885 31.0671C16.9149 31.1814 16.978 31.3263 16.978 31.5016C16.978 31.6693 16.9186 31.8104 16.7997 31.9247L15.0495 33.7315C14.9603 33.8154 14.9157 33.9068 14.9157 34.0059C14.9157 34.0974 14.964 34.1927 15.0607 34.2918L16.7885 36.0643C16.9 36.1786 16.9557 36.3235 16.9557 36.4988C16.9557 36.6742 16.9 36.8228 16.7885 36.9448C16.677 37.0592 16.5358 37.1163 16.3649 37.1163C16.1866 37.1163 16.0416 37.0553 15.9302 36.9334L13.5 34.4519C13.3885 34.3299 13.3328 34.1813 13.3328 34.0059C13.3328 33.823 13.3885 33.6743 13.5 33.56Z" stroke="black" mask="url(#path-2-outside-1_729_119)"/>
<path d="M20.363 37.2764H24.2088C24.3798 37.2764 24.521 37.3336 24.6325 37.448C24.7439 37.5623 24.7997 37.7072 24.7997 37.8825C24.7997 38.0578 24.7439 38.2027 24.6325 38.317C24.521 38.439 24.3798 38.5 24.2088 38.5H20.363C20.192 38.5 20.0471 38.439 19.9282 38.317C19.8167 38.2027 19.761 38.0578 19.761 37.8825C19.761 37.7072 19.8167 37.5623 19.9282 37.448C20.0471 37.3336 20.192 37.2764 20.363 37.2764Z" stroke="black" mask="url(#path-2-outside-1_729_119)"/>
<path d="M27.4934 37.2764H31.3393C31.5103 37.2764 31.6515 37.3336 31.7629 37.448C31.8744 37.5623 31.9302 37.7072 31.9302 37.8825C31.9302 38.0578 31.8744 38.2027 31.7629 38.317C31.6515 38.439 31.5103 38.5 31.3393 38.5H27.4934C27.3225 38.5 27.1776 38.439 27.0587 38.317C26.9472 38.2027 26.8915 38.0578 26.8915 37.8825C26.8915 37.7072 26.9472 37.5623 27.0587 37.448C27.1776 37.3336 27.3225 37.2764 27.4934 37.2764Z" stroke="black" mask="url(#path-2-outside-1_729_119)"/>
<path d="M35.7164 37.2764H36.062C36.1437 37.2764 36.2106 37.2497 36.2626 37.1964L36.6639 36.7847C36.7085 36.7237 36.7308 36.6551 36.7308 36.5789V31.4216C36.7308 31.3377 36.7085 31.2691 36.6639 31.2157L36.2626 30.8041C36.2106 30.7507 36.1437 30.724 36.062 30.724H35.7164C35.5455 30.724 35.4043 30.6668 35.2928 30.5525C35.1813 30.4305 35.1256 30.2819 35.1256 30.1065C35.1256 29.9312 35.1813 29.7863 35.2928 29.672C35.4043 29.5576 35.5455 29.5004 35.7164 29.5004H36.4298C36.6008 29.5004 36.742 29.5614 36.8534 29.6834L37.7898 30.6097C37.9013 30.724 37.957 30.8689 37.957 31.0442V36.9562C37.957 37.1316 37.9013 37.2764 37.7898 37.3908L36.8534 38.317C36.742 38.439 36.6008 38.5 36.4298 38.5H35.7164C35.5455 38.5 35.4043 38.439 35.2928 38.317C35.1813 38.2027 35.1256 38.0578 35.1256 37.8825C35.1256 37.7072 35.1813 37.5623 35.2928 37.448C35.4043 37.3336 35.5455 37.2764 35.7164 37.2764Z" stroke="black" mask="url(#path-2-outside-1_729_119)"/>
</svg>
